<?xml version="1.0" encoding="UTF-8" standalone="no"?>
<svg
   viewBox="0 0 128 128"
   version="1.1"
   id="svg16"
   sodipodi:docname="rs.ac.bg.matf.linijice.svg"
   inkscape:version="1.3.2 (091e20ef0f, 2023-11-25)"
   xmlns:inkscape="http://www.inkscape.org/namespaces/inkscape"
   xmlns:sodipodi="http://sodipodi.sourceforge.net/DTD/sodipodi-0.dtd"
   xmlns="http://www.w3.org/2000/svg"
   xmlns:svg="http://www.w3.org/2000/svg">
  <defs
     id="defs16" />
  <sodipodi:namedview
     id="namedview16"
     pagecolor="#ffffff"
     bordercolor="#000000"
     borderopacity="0.25"
     inkscape:showpageshadow="2"
     inkscape:pageopacity="0.0"
     inkscape:pagecheckerboard="0"
     inkscape:deskcolor="#d1d1d1"
     inkscape:zoom="7.0702107"
     inkscape:cx="47.311178"
     inkscape:cy="58.48482"
     inkscape:window-width="2256"
     inkscape:window-height="1467"
     inkscape:window-x="0"
     inkscape:window-y="0"
     inkscape:window-maximized="1"
     inkscape:current-layer="g16" />
  <g
     id="g16">
    <rect
       style="fill:#ffffff;fill-opacity:1;stroke:none;stroke-width:3;stroke-linecap:round;stroke-dasharray:none"
       id="rect16"
       width="114.16463"
       height="112.5961"
       x="6.9176865"
       y="7.7019501"
       rx="10" />
    <path
       style="color:#000000;fill:#62a0ea;-inkscape-stroke:none"
       d="m 48.787109,48.833984 c -1.869005,-0.149441 -3.689315,-0.132097 -5.449218,0.08789 -13.67869,1.709835 -21.488184,10.962651 -23.408204,21.332031 -1.920019,10.369381 1.795576,21.925176 10.671875,28.677735 l 1.876954,-2.46875 c -7.842345,-5.965988 -11.21314,-16.392435 -9.5,-25.644532 1.71314,-9.252096 8.257004,-17.259665 20.742187,-18.820312 6.04232,-0.75529 13.723251,1.367679 21.576172,4.537109 7.852921,3.16943 15.870972,7.327382 22.849609,10.38086 3.489319,1.526738 6.717538,2.780801 9.601563,3.492187 2.884023,0.711386 5.469913,0.934719 7.681643,0.03906 2.21173,-0.895656 3.71761,-3.061628 4.13672,-5.990235 0.4191,-2.928607 -0.0105,-6.732934 -1.3086,-11.833984 l -3.0039,0.763672 c 1.24486,4.891739 1.5634,8.399925 1.24414,10.630859 -0.31926,2.230934 -1.03753,3.07276 -2.23242,3.556641 -1.1949,0.48388 -3.19765,0.460057 -5.775396,-0.175782 C 95.912486,66.762599 92.805127,65.568222 89.390625,64.074219 82.56162,61.086212 74.501317,56.908774 66.457031,53.662109 60.423817,51.227111 54.394127,49.282307 48.787109,48.833984 Z"
       id="path1" />
    <ellipse
       fill="#5e5c64"
       cx="51.522293"
       cy="83.1647"
       id="ellipse1"
       ry="0"
       rx="0" />
    <path
       style="color:#000000;fill:#9a9996;-inkscape-stroke:none"
       d="m 15.5,84.953125 -0.626953,0.779297 c 8.369184,6.73217 17.006231,13.004221 23.550781,17.640628 3.272275,2.3182 6.022367,4.22772 7.951172,5.57812 0.964403,0.6752 1.723093,1.21146 2.236328,1.58594 0.256618,0.18724 0.452189,0.33521 0.574219,0.43359 0.06101,0.0492 0.105012,0.0879 0.11914,0.10157 0.0071,0.007 0.0065,0.009 -0.0098,-0.0117 -0.01628,-0.021 -0.0918,-0.0317 -0.0918,-0.28125 h 1 c 0,-0.26087 -0.08367,-0.28871 -0.117188,-0.33203 -0.03352,-0.0433 -0.0588,-0.0675 -0.08594,-0.0937 -0.05427,-0.0525 -0.112077,-0.10288 -0.185547,-0.16211 -0.146939,-0.11847 -0.350413,-0.2711 -0.613281,-0.46289 -0.525736,-0.3836 -1.287993,-0.91945 -2.253906,-1.59571 -1.931827,-1.35251 -4.677331,-3.25906 -7.945313,-5.57422 C 32.46599,97.928273 23.843782,91.664862 15.5,84.953125 Z"
       id="path2" />
    <path
       style="color:#000000;fill:#9a9996;-inkscape-stroke:none"
       d="m 39.853516,50.568359 c -6.631105,0.99896 -9.94596,1.498109 -11.611329,1.753907 -0.832684,0.127898 -1.250333,0.194791 -1.474609,0.234375 -0.112138,0.01979 -0.171724,0.03054 -0.238281,0.04883 -0.03328,0.0091 -0.07294,0.01835 -0.13086,0.04883 -0.0049,0.0026 -0.0067,0.0048 -0.01172,0.0078 -0.01295,0.0036 -0.03895,0.01242 -0.125,0.03125 -0.209432,0.04583 -0.642263,0.128946 -1.494141,0.279297 -1.703755,0.300702 -5.087212,0.86986 -11.808594,1.960938 l 0.160157,0.986328 c 6.723228,-1.091377 10.107869,-1.658358 11.822265,-1.960938 0.857199,-0.151289 1.294519,-0.23641 1.535156,-0.289062 0.120319,-0.02633 0.187745,-0.04271 0.257813,-0.06641 0.02516,-0.0085 0.05814,-0.02357 0.08984,-0.03906 0.01409,-0.003 0.03702,-0.0093 0.117187,-0.02344 0.202993,-0.03583 0.620381,-0.102861 1.451172,-0.230469 1.661583,-0.255216 4.978271,-0.754947 11.609375,-1.753906 z"
       id="path3" />
    <path
       style="color:#000000;fill:#9a9996;-inkscape-stroke:none"
       d="m 69.646484,45.847656 c 0,0 7.24e-4,-4.88e-4 -30.519531,4.720703 l 0.152344,0.988282 c 15.260127,-2.360596 22.890046,-3.54071 26.705078,-4.13086 1.907516,-0.295075 2.861012,-0.443809 3.337891,-0.517578 0.238439,-0.03688 0.358358,-0.05523 0.417968,-0.06445 0.0298,-0.0046 0.04333,-0.0067 0.05078,-0.0078 0.0037,-5.76e-4 0.0069,1.45e-4 0.0078,0 l -0.07617,-0.49414 z"
       id="path4" />
    <path
       style="color:#000000;fill:#9a9996;-inkscape-stroke:none"
       d="m 97.794922,13.275391 -0.970703,0.236328 5.525391,22.716797 c -0.0104,0.0026 -0.0742,0.01755 -0.0742,0.01758 5e-5,2.02e-4 -1.2e-4,0.0014 0,0.002 1.3e-4,5.06e-4 -2e-4,0.0011 0,0.002 1.4e-4,5.5e-4 0.002,0.0032 0.002,0.0039 4.9e-4,0.002 -7.6e-4,0.0028 0,0.0059 8.7e-4,0.0035 0.005,0.02049 0.006,0.02539 0.001,0.0059 0.002,0.0061 0.004,0.01367 0.0264,0.106372 0.094,0.377627 0.20898,0.841797 0.0113,0.04578 0.0893,0.362539 0.10157,0.412109 0.11398,0.460175 0.18394,0.744978 0.35742,1.445313 0.56523,2.281849 1.49996,6.049992 3.67969,14.849609 2.7e-4,0.0011 -2.7e-4,8.63e-4 0,0.002 4.90572,19.804593 7.35951,29.707056 8.58593,34.658203 0.61322,2.475574 0.91897,3.715092 1.07227,4.333985 0.0767,0.309446 0.1156,0.463655 0.13476,0.541015 0.01,0.03868 0.0132,0.05674 0.0156,0.06641 0.001,0.0048 0.004,0.0086 0.004,0.0098 0,0 0.48437,-0.11914 0.48437,-0.11914 v 0.5 c 0,0 0.48619,-0.621117 -0.74023,-5.572266 -1.22637,-4.950886 -3.68073,-14.85376 -8.58594,-34.65625 v -0.002 c -0.0155,-0.0624 -0.01,-0.04346 -0.0254,-0.105469 z"
       id="path5" />
    <ellipse
       fill="#3d3846"
       cx="15.003993"
       cy="85.7077"
       rx="2.361308"
       ry="2.543003"
       id="ellipse5" />
    <ellipse
       fill="#3d3846"
       cx="50.432842"
       cy="111.14482"
       rx="2.181034"
       ry="2.179615"
       id="ellipse6" />
    <ellipse
       fill="#77767b"
       cx="13.369461"
       cy="116.594925"
       id="ellipse7"
       ry="0"
       rx="0" />
    <ellipse
       fill="#3d3846"
       cx="47.52645"
       cy="80.98297"
       id="ellipse8"
       ry="0"
       rx="0" />
    <ellipse
       fill="#3d3846"
       cx="74.415695"
       cy="103.1496"
       id="ellipse9"
       ry="0"
       rx="0" />
    <ellipse
       fill="#77767b"
       cx="32.26347"
       cy="98.24458"
       rx="2.181034"
       ry="2.361309"
       id="ellipse10" />
    <ellipse
       fill="#3d3846"
       cx="13.401217"
       cy="55.424362"
       rx="2.1810341"
       ry="2.1789074"
       id="ellipse11" />
    <ellipse
       fill="#3d3846"
       cx="70.451622"
       cy="46.522789"
       rx="2.1810341"
       ry="2.3634377"
       id="ellipse12" />
    <ellipse
       fill="#3d3846"
       cx="116.93416"
       cy="93.336"
       rx="2.181034"
       ry="2.179615"
       id="ellipse13" />
    <ellipse
       fill="#3d3846"
       cx="97.6732"
       cy="13.757004"
       rx="2.181034"
       ry="2.179615"
       id="ellipse14" />
    <circle
       fill="#5e5c64"
       cx="41.201061"
       cy="50.883438"
       id="ellipse15"
       r="1.9986305" />
    <ellipse
       fill="#5e5c64"
       cx="106.75931"
       cy="51.366882"
       rx="2.181034"
       ry="2.3634396"
       id="ellipse16" />
  </g>
</svg>
